<?xml version="1.0" encoding="utf-8"?>
<!-- Generator: Adobe Illustrator 16.2.0, SVG Export Plug-In . SVG Version: 6.00 Build 0)  -->
<!DOCTYPE svg PUBLIC "-//W3C//DTD SVG 1.1//EN" "http://www.w3.org/Graphics/SVG/1.1/DTD/svg11.dtd">
<svg version="1.1" id="Layer_1" xmlns="http://www.w3.org/2000/svg" xmlns:xlink="http://www.w3.org/1999/xlink" x="0px" y="0px"
	 width="1024px" height="707px" viewBox="0 197.5 1024 707" style="enable-background:new 0 197.5 1024 707;" xml:space="preserve">
<style type="text/css">
<![CDATA[
	.st0{fill:#2083B8;fill-opacity:0.9;}
	.st1{clip-path:url(#SVGID_2_);}
	.st2{fill:#FFFFFF;}
	.st3{fill:none;}
]]>
</style>
<rect x="51.5" y="231" class="st0" width="921.023" height="279"/>
<path class="st0" d="M977.5,225.5v290H46.523v-290H977.5 M983.5,219.5H40.523v302H983.5V219.5L983.5,219.5z"/>
<g id="Layer_4">
</g>
<g id="Layer_3">
</g>
<g id="Layer_2">
</g>
<g id="Layer_1_1_">
	<path class="st3" d="M1363.87,250.148"/>
	<g>
		<g>
			<path class="st2" d="M110.778,352.764c-0.382,1.273-1.273,1.527-2.164,0.511c-2.164-2.418-3.182-7.383-0.636-14.255
				c6.236-17.183,22.91-47.347,32.965-64.275c1.146-1.909,2.036-2.036,3.309-1.146c4.709,3.437,5.729,7,4.327,15.783
				c-2.037,12.092-3.309,28-4.2,45.819c8.654-19.601,23.292-46.201,32.836-60.966c1.018-1.527,2.164-1.146,2.927,0.254
				c1.909,3.818,1.782,8.909-3.945,18.456c-7.51,12.472-23.673,43.02-31.182,59.946c-0.509,1.272-1.146,1.529-2.545,0.764
				c-3.818-2.038-5.6-5.091-6.236-13.237c-0.636-7.765-0.127-24.946,2.164-43.02C128.852,313.817,115.869,337.491,110.778,352.764z"
				/>
			<path class="st2" d="M236.015,325.527c-10.309,18.964-26.346,33.856-43.656,27.492c-10.438-3.817-14.51-13.363-14.51-23.801
				c0-27.11,23.802-50.656,38.184-55.748c7.382-2.545,13.745-1.146,17.31,2.545C249.125,282.89,245.56,307.963,236.015,325.527z
				 M230.795,279.071c-6.236-2.291-22.401,6.364-34.364,24.946c-12.219,18.964-12.473,40.474-3.818,44.165
				c8.401,3.565,23.419-6.618,34.109-26.219C238.305,300.707,237.796,281.615,230.795,279.071z"/>
			<path class="st2" d="M247.464,352.382c-0.509,1.273-1.146,1.4-2.038,0.509c-1.782-1.909-3.054-5.727-1.145-12.6
				c3.182-11.582,15.146-35.766,26.346-53.33c-4.327-0.382-6.618-2.291-8.145-5.091c-0.636-1.272-0.254-1.909,1.4-2.163
				c10.69-1.273,20.237-6.491,28.764-6.873c6.492-0.255,12.092,1.654,15.146,10.31c2.673,7.636,0.892,15.399-3.945,21.892
				c-6.874,9.163-20.619,17.183-34.748,20.492c4.836,5.983,9.418,12.092,12.092,17.437c1.782,3.438,2.291,7.765,0.636,10.311
				c-0.636,1.017-1.272,1.4-2.036,0.254c-8.4-11.456-15.019-19.728-21.001-26.348C255.355,333.927,251.664,341.945,247.464,352.382z
				 M273.556,300.58c-3.436,6.108-6.618,11.456-10.056,17.691c28.129-6.236,42.511-24.819,38.82-33.856
				c-2.8-7.127-15.528-0.509-23.928,1.782C278.392,289.762,276.992,294.216,273.556,300.58z"/>
			<path class="st2" d="M334.387,286.071c-7.636,0.254-13.108-2.545-14.508-7.254c-0.382-1.146,0.127-1.782,1.399-1.654
				c11.329,0.891,32.457-3.818,39.711-3.564c5.346,0.127,10.183,1.527,12.092,6.491c0.382,1.018,0.128,2.036-1.527,1.909
				c-6.235-0.636-14.255,0.636-21.637,1.909c0.127,3.054-0.764,7.254-4.2,13.492c-7.636,13.873-18.455,31.693-28.382,54.983
				c-0.51,1.273-1.146,1.273-2.036,0.382c-1.782-1.654-3.31-5.472-1.655-11.582c2.928-10.438,16.673-38.056,28.51-56.002
				C339.224,285.689,336.68,285.944,334.387,286.071z"/>
			<path class="st2" d="M409.987,318.145c2.928,1.272,4.455,3.436,4.964,5.601c0.255,1.018-0.127,1.654-1.4,1.4
				c-2.036-0.382-4.454-0.509-7.128-0.382c-4.327,8.272-8.781,17.438-12.983,26.982c-0.509,1.271-1.399,1.4-2.163,0.254
				c-1.782-2.545-2.927-6.237-0.382-14.001c0.891-2.544,2.8-7,5.346-12.219c-9.291,1.146-19.092,2.8-25.074,2.8
				c-3.945,7.893-7.891,16.292-11.581,24.82c-0.509,1.273-1.527,1.655-2.291,0.509c-1.909-2.672-2.8-6.236-0.636-14
				c0.764-2.673,2.927-7.256,5.473-12.983c-2.801-1.272-3.818-3.054-4.328-4.073c-0.764-1.527-0.509-2.036,1.655-1.909
				c1.909,0.127,3.69,0.382,5.345,0.382c8.146-16.928,19.982-38.947,25.201-46.329c1.146-1.527,2.291-1.273,3.055,0.127
				c1.908,3.563,1.526,9.8-3.183,18.837c-3.69,7.127-8.908,16.163-14.508,26.728c8.781-1.146,16.672-3.309,25.073-3.818
				c8.272-16.419,19.474-36.656,24.564-43.401c1.272-1.654,2.418-1.527,3.182,0.127c1.781,3.691,1.399,9.673-3.945,19.219
				C420.425,299.689,415.462,308.217,409.987,318.145z"/>
			<path class="st2" d="M513.048,326.037c3.183,8.527-4.964,18.072-10.31,21.892c-9.037,6.492-19.728,6.363-26.602,2.672
				c-5.728-3.056-10.69-10.945-10.945-21.382c-0.509-26.982,22.146-50.02,36.402-55.494c6.872-2.673,13.109-3.182,17.183,0.382
				c2.8,2.418,5.727,6.109,6.745,9.292c1.144,3.691,0.762,7.254-1.146,11.2c-1.911,3.945-3.691,8.91-5.091,12.601
				c-0.382,1.018-1.272,1.782-2.8,0.764c-2.928-1.909-4.965-5.854-3.055-12.219c2.036-6.745,6.616-14,3.689-17.056
				c-3.563-3.818-22.91,6.492-34.364,25.456c-11.199,18.583-9.928,37.42-3.69,42.512c8.145,6.618,21.637-1.91,31.31-20.875
				C511.011,324.38,512.411,324.38,513.048,326.037z"/>
			<path class="st2" d="M538.116,334.056c-3.817,6.491-7.128,12.727-9.672,18.327c-0.511,1.146-1.656,1.146-2.291,0.255
				c-1.527-2.037-2.038-5.854,0.636-12.981c0.764-1.911,1.911-4.456,3.438-7.256c-2.8-1.527-3.818-3.436-4.2-4.327
				c-0.638-1.654-0.382-2.164,1.527-1.909c1.781,0.255,3.69,0.509,5.727,0.636c9.928-17.31,27.619-42.51,41.111-53.583
				c2.037-1.654,3.311-1.654,4.583,0.127s1.654,2.037,2.927,5.218c1.273,3.054,1.146,5.854,0,9.291
				c-3.311,10.056-6.872,23.037-9.292,37.038c3.818,1.272,5.218,3.818,5.728,6.492c0.254,1.144-0.255,1.527-1.4,1.144
				c-1.527-0.382-3.309-0.637-5.473-0.762c-0.889,6.618-1.654,13.619-1.908,20.364c0,1.273-0.764,1.655-1.911,1.146
				c-2.544-1.146-4.581-4.329-4.709-11.583c0-2.545,0.128-5.854,0.509-9.672C554.408,332.654,544.098,334.183,538.116,334.056z
				 M564.463,324.253c1.91-13.236,5.472-29.273,9.417-39.202c-9.672,10.819-21.255,26.219-30.929,41.365
				C550.718,325.78,558.48,324.38,564.463,324.253z"/>
			<path class="st2" d="M590.425,352.382c-0.51,1.273-1.146,1.4-2.037,0.509c-1.782-1.909-3.055-5.727-1.146-12.6
				c3.183-11.582,15.146-35.766,26.348-53.33c-4.327-0.382-6.618-2.291-8.146-5.091c-0.638-1.272-0.255-1.909,1.4-2.163
				c10.691-1.273,20.236-6.491,28.764-6.873c6.492-0.255,12.092,1.654,15.146,10.31c2.673,7.636,0.891,15.399-3.945,21.892
				c-6.872,9.163-20.619,17.183-34.746,20.492c4.837,5.983,9.418,12.092,12.093,17.437c1.781,3.438,2.289,7.765,0.636,10.311
				c-0.636,1.017-1.272,1.4-2.036,0.254c-8.401-11.456-15.02-19.728-21.001-26.348C598.317,333.927,594.625,341.945,590.425,352.382
				z M616.517,300.58c-3.438,6.108-6.618,11.456-10.054,17.691c28.127-6.236,42.51-24.819,38.818-33.856
				c-2.8-7.127-15.527-0.509-23.927,1.782C621.354,289.762,619.953,294.216,616.517,300.58z"/>
			<path class="st2" d="M711.97,325.527c-10.311,18.964-26.348,33.856-43.657,27.492c-10.437-3.817-14.509-13.363-14.509-23.801
				c0-27.11,23.801-50.656,38.184-55.748c7.381-2.545,13.745-1.146,17.31,2.545C725.078,282.89,721.515,307.963,711.97,325.527z
				 M706.752,279.071c-6.238-2.291-22.401,6.364-34.366,24.946c-12.219,18.964-12.472,40.474-3.816,44.165
				c8.4,3.565,23.419-6.618,34.109-26.219C714.261,300.707,713.751,281.615,706.752,279.071z"/>
			<path class="st2" d="M745.947,341.31c6.365-0.51,9.801,1.909,11.201,5.727c0.382,1.018,0.382,1.909-1.272,1.909
				c-6.365-0.127-20.364,3.056-27.748,4.965c-3.054,0.764-4.327,0.764-5.727-1.272c-1.146-1.655-2.673-3.945-3.31-5.473
				c-0.891-2.164-0.891-4.073,0.382-7.382c6.109-15.783,27.11-54.348,34.875-65.166c1.144-1.527,2.289-1.4,3.055,0.254
				c1.527,3.182,2.036,8.528-3.182,17.946c-6.618,12.092-18.201,31.691-27.62,52.056C733.855,342.963,741.111,341.69,745.947,341.31
				z"/>
			<path class="st2" d="M808.182,273.725c1.783,3.691,1.656,9.8-3.816,19.474c-7.893,13.874-21.892,38.438-31.183,59.312
				c-0.51,1.272-1.018,1.4-2.037,0.254c-1.782-1.909-3.31-6.363-0.51-14.126c6.236-17.31,24.183-50.148,34.491-65.039
				C806.272,271.943,807.418,272.197,808.182,273.725z"/>
			<path class="st2" d="M801.432,352.764c-0.381,1.273-1.272,1.527-2.163,0.511c-2.163-2.418-3.182-7.383-0.637-14.255
				c6.238-17.183,22.91-47.347,32.964-64.275c1.146-1.909,2.038-2.036,3.311-1.146c4.709,3.437,5.728,7,4.328,15.783
				c-2.038,12.092-3.311,28-4.2,45.819c8.654-19.601,23.292-46.201,32.837-60.966c1.018-1.527,2.163-1.146,2.927,0.254
				c1.911,3.818,1.782,8.909-3.945,18.456c-7.509,12.472-23.673,43.02-31.183,59.946c-0.509,1.272-1.145,1.529-2.545,0.764
				c-3.816-2.038-5.6-5.091-6.236-13.237c-0.638-7.765-0.127-24.946,2.164-43.02C819.506,313.817,806.524,337.491,801.432,352.764z"
				/>
			<path class="st2" d="M872.833,334.056c-3.818,6.491-7.129,12.727-9.673,18.327c-0.51,1.146-1.656,1.146-2.291,0.255
				c-1.527-2.037-2.037-5.854,0.637-12.981c0.764-1.911,1.91-4.456,3.438-7.256c-2.8-1.527-3.818-3.436-4.199-4.327
				c-0.639-1.654-0.384-2.164,1.527-1.909c1.781,0.255,3.69,0.509,5.727,0.636c9.927-17.31,27.619-42.51,41.11-53.583
				c2.038-1.654,3.311-1.654,4.583,0.127c1.273,1.782,1.655,2.037,2.928,5.218c1.272,3.054,1.146,5.854,0,9.291
				c-3.309,10.056-6.873,23.037-9.292,37.038c3.817,1.272,5.218,3.818,5.727,6.492c0.257,1.144-0.254,1.527-1.399,1.144
				c-1.527-0.382-3.31-0.637-5.473-0.762c-0.89,6.618-1.654,13.619-1.909,20.364c0,1.273-0.764,1.655-1.91,1.146
				c-2.544-1.146-4.582-4.329-4.709-11.583c0-2.545,0.127-5.854,0.509-9.672C889.125,332.654,878.814,334.183,872.833,334.056z
				 M899.179,324.253c1.909-13.236,5.473-29.273,9.418-39.202c-9.673,10.819-21.255,26.219-30.929,41.365
				C885.433,325.78,893.197,324.38,899.179,324.253z"/>
		</g>
	</g>
	<g>
		<path class="st2" d="M296.593,769.379l4.871-32.255h5.792l4.871,32.255h-4.608l-0.877-6.583h-4.563l-0.879,6.583H296.593z
			 M304.623,747.611l-0.132-0.832h-0.263l-0.133,0.832l-1.36,10.182h3.249L304.623,747.611z"/>
		<path class="st2" d="M334.069,737.124h4.606l-4.915,32.255h-4.738l-4.915-32.255h4.608l2.37,17.729l0.175,1.36h0.264l0.176-1.36
			L334.069,737.124z"/>
		<path class="st2" d="M343.022,737.124h4.738v32.255h-4.738V737.124z"/>
		<path class="st2" d="M361.321,745.769c0-1.054-0.042-2.237-0.351-3.159c-0.307-0.879-0.789-1.493-1.535-1.493
			c-1.229,0.044-1.624,1.316-1.624,3.204c0,1.097,0.483,2.236,1.186,3.465c0.702,1.23,1.624,2.502,2.545,3.863
			c1.098,1.623,2.194,3.292,3.028,4.914c0.832,1.624,1.403,3.291,1.403,5.047c0,2.15-0.35,4.169-1.36,5.66
			c-1.009,1.493-2.634,2.459-5.222,2.459c-3.028,0-4.739-1.142-5.703-2.896c-0.966-1.754-1.187-4.082-1.187-6.494l4.651-0.438
			c0,1.36,0.044,2.72,0.396,3.73c0.309,1.053,0.834,1.755,1.845,1.755c1.404,0,1.929-1.493,1.929-3.556
			c0-1.054-0.524-2.282-1.229-3.555c-0.395-0.614-0.788-1.272-1.229-1.93c-0.922-1.316-1.931-2.809-2.982-4.433
			c-1.055-1.624-1.845-3.291-2.328-5.003c-0.263-0.834-0.396-1.712-0.396-2.589c0-1.756,0.396-3.643,1.406-5.091
			c1.008-1.404,2.545-2.412,4.783-2.458c2.853-0.044,4.521,1.142,5.442,2.853c0.921,1.754,1.185,3.906,1.185,5.704L361.321,745.769z
			"/>
		<path class="st2" d="M383.307,737.124v25.628c-0.043,1.316-0.306,2.502-0.788,3.511c-0.396,0.878-1.01,1.712-1.889,2.37
			c-0.878,0.7-2.062,1.097-3.642,1.097s-2.809-0.396-3.688-1.097c-0.878-0.658-1.447-1.494-1.844-2.37
			c-0.482-1.009-0.746-2.194-0.788-3.511v-25.628h4.738v25.628c0,0.923,0.22,1.537,0.658,2.021c0.22,0.218,0.525,0.35,0.922,0.35
			c0.832,0,1.229-0.525,1.404-1.186c0.132-0.307,0.176-0.702,0.176-1.186v-25.628L383.307,737.124L383.307,737.124z"/>
		<path class="st2" d="M387.652,769.379l4.872-32.255h5.793l4.869,32.255h-4.606l-0.878-6.583h-4.563l-0.878,6.583H387.652z
			 M395.684,747.611l-0.132-0.832h-0.265l-0.131,0.832l-1.361,10.182h3.248L395.684,747.611z"/>
		<path class="st2" d="M407.577,737.124h4.738v27.866h6.275v4.389h-11.014V737.124z"/>
		<path class="st2" d="M439.217,748.709v-4.96c0-0.877-0.176-1.491-0.614-2.019c-0.218-0.218-0.57-0.351-0.966-0.351
			c-0.832,0-1.229,0.614-1.404,1.187c-0.131,0.351-0.174,0.746-0.174,1.185v19.397c0,0.922,0.218,1.536,0.657,2.019
			c0.219,0.22,0.526,0.352,0.921,0.352c0.834,0,1.23-0.527,1.404-1.187c0.132-0.308,0.176-0.701,0.176-1.186v-5.836h-1.887v-3.992
			h6.625v16.061h-2.809l-0.569-1.536c-0.879,1.097-2.151,1.887-3.688,1.887s-2.591-0.396-3.379-1.097
			c-0.792-0.658-1.317-1.494-1.67-2.37c-0.395-1.009-0.57-2.194-0.524-3.511v-19.001c0.042-1.272,0.307-2.458,0.788-3.467
			c0.396-0.878,0.966-1.754,1.845-2.412c0.878-0.658,2.106-1.098,3.687-1.098s2.765,0.439,3.643,1.098s1.493,1.536,1.887,2.412
			c0.482,1.009,0.746,2.194,0.788,3.467v4.959L439.217,748.709L439.217,748.709z"/>
		<path class="st2" d="M462.213,737.124v25.628c-0.042,1.316-0.307,2.502-0.79,3.511c-0.396,0.878-1.009,1.712-1.887,2.37
			c-0.878,0.7-2.063,1.097-3.643,1.097s-2.809-0.396-3.687-1.097c-0.878-0.658-1.448-1.494-1.843-2.37
			c-0.483-1.009-0.746-2.194-0.79-3.511v-25.628h4.738v25.628c0,0.923,0.219,1.537,0.659,2.021c0.218,0.218,0.525,0.35,0.921,0.35
			c0.833,0,1.229-0.525,1.405-1.186c0.132-0.307,0.174-0.702,0.174-1.186v-25.628L462.213,737.124L462.213,737.124z"/>
		<path class="st2" d="M467.874,737.124h4.74v32.255h-4.74V737.124z"/>
		<path class="st2" d="M478.319,769.379v-32.255h3.731c4.387,0,6.757,0.878,8.029,3.334c1.229,2.459,1.404,6.495,1.404,12.814
			s-0.175,10.313-1.404,12.77c-1.272,2.459-3.642,3.335-8.029,3.335h-3.731V769.379z M483.059,764.638
			c1.623,0,2.546-0.176,3.028-1.754c0.218-0.748,0.396-1.888,0.438-3.423c0.045-1.538,0.045-3.599,0.045-6.233
			c0-2.634,0-4.694-0.045-6.232c-0.042-1.491-0.218-2.633-0.438-3.423c-0.482-1.536-1.405-1.711-3.028-1.711V764.638z"/>
		<path class="st2" d="M496.839,737.124h10.84v4.87h-6.101v8.47h4.388v5.179h-4.388v8.865h6.101v4.871h-10.84V737.124z"/>
		<path class="st2" d="M519.79,741.994v-4.87h13.69v4.87h-4.477v27.385h-4.739v-27.385H519.79z"/>
		<path class="st2" d="M549.85,762.75c-0.042,1.317-0.306,2.502-0.788,3.512c-0.396,0.877-1.01,1.711-1.887,2.369
			c-0.88,0.701-2.063,1.098-3.643,1.098s-2.81-0.396-3.687-1.098c-0.879-0.658-1.448-1.493-1.845-2.369
			c-0.481-1.01-0.746-2.194-0.789-3.512v-19.001c0.043-1.272,0.308-2.457,0.789-3.467c0.396-0.878,0.966-1.754,1.845-2.412
			c0.878-0.658,2.106-1.097,3.687-1.097c1.579,0,2.765,0.438,3.643,1.097c0.877,0.658,1.493,1.536,1.887,2.412
			c0.482,1.01,0.746,2.194,0.788,3.467V762.75z M545.111,743.749c0-0.877-0.175-1.491-0.614-2.019
			c-0.218-0.218-0.57-0.351-0.965-0.351c-0.833,0-1.229,0.614-1.404,1.187c-0.132,0.351-0.175,0.746-0.175,1.185v19.001
			c0,0.923,0.219,1.537,0.657,2.021c0.22,0.218,0.526,0.35,0.922,0.35c0.833,0,1.229-0.525,1.404-1.186
			c0.132-0.307,0.175-0.702,0.175-1.186V743.749z"/>
		<path class="st2" d="M562.533,741.994v-4.87h13.69v4.87h-4.475v27.385h-4.739v-27.385H562.533z"/>
		<path class="st2" d="M577.937,769.379l4.872-32.255h5.792l4.872,32.255h-4.608l-0.878-6.583h-4.563l-0.88,6.583H577.937z
			 M585.967,747.611l-0.132-0.832h-0.264l-0.132,0.832l-1.36,10.182h3.248L585.967,747.611z"/>
		<path class="st2" d="M601.108,769.379h-4.651l5.221-16.938l-5.135-15.316h4.651l2.591,8.161l0.132,0.396h0.176l0.132-0.396
			l2.589-8.161h4.652l-5.135,15.316l5.222,16.938h-4.651l-2.721-9.609l-0.088-0.396h-0.176l-0.088,0.396L601.108,769.379z"/>
		<path class="st2" d="M633.275,769.379l-2.459-13.604h-1.272v13.604h-4.738v-32.255h4.738c5.661,0,8.074,3.202,8.074,9.303
			c0,3.203-0.832,6.1-2.632,7.329l3.027,15.623H633.275z M629.545,751.386c0.658,0,1.537-0.088,2.238-0.701
			c0.7-0.612,1.272-1.799,1.272-4.081s-0.572-3.511-1.272-4.125c-0.701-0.615-1.58-0.657-2.238-0.657V751.386z"/>
		<path class="st2" d="M642.842,737.124h10.839v4.87h-6.101v8.47h4.389v5.179h-4.389v8.865h6.101v4.871h-10.839V737.124z"/>
		<path class="st2" d="M669.787,741.994h-6.539v8.47h4.389v4.871h-4.389v14.044h-4.74v-32.255h11.279V741.994z"/>
		<path class="st2" d="M686.244,762.75c-0.044,1.317-0.309,2.502-0.79,3.512c-0.396,0.877-1.01,1.711-1.888,2.369
			c-0.877,0.701-2.063,1.098-3.643,1.098c-1.579,0-2.809-0.396-3.686-1.098c-0.878-0.658-1.448-1.493-1.844-2.369
			c-0.482-1.01-0.746-2.194-0.791-3.512v-19.001c0.045-1.272,0.309-2.457,0.791-3.467c0.396-0.878,0.966-1.754,1.844-2.412
			c0.877-0.658,2.104-1.097,3.686-1.097c1.582,0,2.767,0.438,3.643,1.097c0.877,0.658,1.492,1.536,1.888,2.412
			c0.481,1.01,0.746,2.194,0.79,3.467V762.75z M681.504,743.749c0-0.877-0.175-1.491-0.614-2.019
			c-0.22-0.218-0.572-0.351-0.966-0.351c-0.833,0-1.229,0.614-1.404,1.187c-0.131,0.351-0.175,0.746-0.175,1.185v19.001
			c0,0.923,0.219,1.537,0.658,2.021c0.218,0.218,0.526,0.35,0.921,0.35c0.834,0,1.229-0.525,1.405-1.186
			c0.133-0.307,0.175-0.702,0.175-1.186V743.749z"/>
		<path class="st2" d="M700.113,769.379l-2.459-13.604h-1.272v13.604h-4.738v-32.255h4.738c5.661,0,8.074,3.202,8.074,9.303
			c0,3.203-0.832,6.1-2.632,7.329l3.027,15.623H700.113z M696.382,751.386c0.658,0,1.537-0.088,2.237-0.701
			c0.701-0.612,1.273-1.799,1.273-4.081s-0.572-3.511-1.273-4.125c-0.7-0.615-1.579-0.657-2.237-0.657V751.386z"/>
		<path class="st2" d="M717.534,769.379l-3.026-20.273l-0.177-1.361h-0.264v21.635h-4.389v-32.255h5.793l2.809,14.744l0.218,1.712
			h0.09l0.219-1.712l2.809-14.744h5.792v32.255h-4.387v-21.635h-0.265l-0.175,1.361l-3.028,20.273H717.534z"/>
	</g>
	<g>
		<path class="st2" d="M346.944,401.836v53.242h-5.767v-53.242H346.944z M343.313,403.969v48.898h1.499v-48.898H343.313z"/>
		<path class="st2" d="M365.35,401.836v47.476h12.088v5.767h-17.773v-53.242H365.35z M363.217,451.523v-47.557h-1.423v48.899h13.508
			v-1.343H363.217z"/>
		<path class="st2" d="M395.445,401.836v47.476h12.088v5.767H389.76v-53.242H395.445z M393.314,451.523v-47.557h-1.424v48.899
			h13.508v-1.343H393.314z"/>
		<path class="st2" d="M443.237,441.57c0,8.294-4.503,13.983-13.192,13.983c-8.612,0-13.034-5.689-13.114-13.983v-39.814h5.846
			v39.419c0,4.897,2.29,8.61,7.269,8.61c5.054,0,7.345-3.713,7.345-8.61v-39.419h5.846v39.814H443.237z M419.223,441.57
			c0,6.951,3.634,11.77,10.822,11.77s10.98-4.818,10.98-11.77v-37.602h-1.424v37.208c0,6.161-3.002,10.82-9.557,10.82
			c-6.479,0-9.479-4.66-9.479-10.82v-37.208h-1.343V441.57L419.223,441.57z"/>
		<path class="st2" d="M467.962,426.403c5.135,4.581,10.27,9.321,10.27,15.878c0,8.373-4.109,13.271-12.641,13.271
			c-9.874,0-12.402-6.479-12.402-18.644h5.767c0,7.346,0.789,12.877,6.635,12.877c4.583,0,6.873-2.844,6.873-7.425
			c0-4.188-4.188-8.139-7.506-10.901l0.081,0.079c-5.294-3.792-11.377-9.954-11.377-17.22c0-7.347,4.662-13.034,12.324-13.034
			c10.665,0,11.771,7.979,11.771,17.932h-5.766c0-6.161-0.396-12.165-6.003-12.165c-4.345,0-6.556,3.476-6.556,7.663
			c0,4.345,4.267,7.978,8.532,11.77v-0.08H467.962z M455.323,439.121c0,8.688,2.291,14.219,10.269,14.219
			c7.11,0,10.508-4.028,10.508-11.059c0-11.535-18.879-16.827-18.879-27.57c0-5.372,3.002-9.875,8.768-9.875
			c7.663,0,8.137,6.794,8.216,12.244h1.343c0-8.215-1.66-13.666-9.559-13.666c-6.319,0-10.11,4.819-10.11,10.901
			c0,6.398,5.608,11.927,10.507,15.483h-0.08c3.713,3.079,8.375,8.136,8.375,12.56c0,6.004-3.003,9.638-9.086,9.638
			c-7.82,0-8.769-7.505-8.769-12.876L455.323,439.121L455.323,439.121z"/>
		<path class="st2" d="M502.402,454.999h-5.767v-47.478h-8.848v-5.766h23.462v5.766h-8.848V454.999z M490,405.389h8.769v47.478
			h1.501v-47.478h8.848v-1.422H490V405.389z"/>
		<path class="st2" d="M534.077,401.836c10.192,0,12.562,6.082,12.562,14.93c0,4.029-0.711,8.769-3.634,11.691
			c2.45,2.289,3.319,6.24,3.319,9.795v16.826h-5.767v-16.591c0-4.897-1.658-6.951-6.635-6.951h-5.452v23.542h-5.766v-53.242H534.077
			L534.077,401.836z M544.188,438.252c0-4.187-1.025-8.532-5.765-9.639c5.213-1.58,6.003-7.107,6.003-11.849
			c0-7.505-1.975-12.798-10.348-12.798h-9.241v48.899h1.501v-23.542h7.583c6.636,0,8.769,2.765,8.769,9.163v14.379h1.5v-14.614
			H544.188z M526.338,405.468h7.425c7.74,0,9.241,4.583,9.241,11.298c0,7.505-1.975,11.139-9.953,11.139h-6.715v-22.437H526.338z
			 M533.052,425.69c6.241,0,7.741-2.923,7.741-8.926c0-5.452-1.105-9.165-7.03-9.165h-5.294v18.09L533.052,425.69L533.052,425.69z"
			/>
		<path class="st2" d="M574.996,401.836l12.087,53.242h-5.925l-3.319-15.247h-10.111l-3.555,15.247h-5.925l12.164-53.242H574.996z
			 M582.977,452.866h1.422l-11.137-48.899h-1.107l-11.218,48.899h1.501l3.397-15.168h13.745L582.977,452.866z M572.706,407.601
			l6.556,28.677h-13.114L572.706,407.601z M572.706,417.24l-3.792,16.904h7.583L572.706,417.24z"/>
		<path class="st2" d="M604.619,454.999h-5.768v-47.478h-8.846v-5.766h23.459v5.766h-8.846V454.999z M592.217,405.389h8.769v47.478
			h1.5v-47.478h8.849v-1.422h-19.117V405.389z"/>
		<path class="st2" d="M641.745,425.69v5.767h-10.429v17.853h15.641v5.767h-21.328v-53.242h21.328v5.688h-15.641v18.169H641.745z
			 M627.842,403.969v48.898h16.905v-1.343h-15.562v-22.277h10.426v-1.343h-10.426v-22.516h15.562v-1.422h-16.905V403.969z"/>
		<path class="st2" d="M669.63,401.836c9.638,0,13.193,6.636,13.193,15.167v22.908c0,8.61-3.477,15.167-13.193,15.167h-11.375
			v-53.242H669.63z M669.63,452.866c8.137,0,10.98-5.529,10.98-12.955v-22.908c0-7.27-2.923-13.034-10.98-13.034h-9.165v48.898
			L669.63,452.866L669.63,452.866z M669.077,405.389c7.505,0,10.19,5.214,10.19,12.008v22.118c0,6.795-2.686,12.009-10.19,12.009
			h-7.269v-46.135H669.077z M669.077,449.312c5.925,0,7.979-4.266,7.979-9.795v-22.119c0-5.529-2.054-9.874-7.979-9.874h-5.056
			v41.788H669.077z"/>
	</g>
	<g>
		<g>
			<g>
				<defs>
					<rect id="SVGID_1_" x="298.979" y="811.231" width="144.412" height="79.232"/>
				</defs>
				<clipPath id="SVGID_2_">
					<use xlink:href="#SVGID_1_"  style="overflow:visible;"/>
				</clipPath>
				<g class="st1">
					<path class="st2" d="M298.979,852.804h14.106v2.62h-5.54v14.814h-3.05v-14.814h-5.517V852.804z M317.621,855.813h0.049h0.024
						l2.611,7.515h-5.32L317.621,855.813z M309.374,870.238h3.147l1.635-4.606h6.954l1.636,4.606h3.27l-6.711-17.435h-3.246
						L309.374,870.238z M326.146,852.804h3.637l3.954,6.153l4.124-6.153h3.416l-5.758,8.4l6.173,9.034h-3.71l-4.343-6.665
						l-4.416,6.665h-3.491l6.175-9.034L326.146,852.804z M300.642,872.632h12.031v2.618h-8.981v4.573h7.882v2.494h-7.882v7.748
						h-3.05V872.632z M321.051,874.73c3.741,0,5.307,3.284,5.307,6.618c0,3.332-1.565,6.616-5.307,6.616s-5.305-3.284-5.305-6.616
						C315.746,878.015,317.31,874.73,321.051,874.73 M321.051,872.236c-5.231,0-8.354,4.148-8.354,9.112
						c0,4.962,3.123,9.11,8.354,9.11c5.233,0,8.356-4.148,8.356-9.11C329.407,876.385,326.284,872.236,321.051,872.236
						 M330.531,872.632h3.052v10.156c0,2.345,0.145,5.055,4.094,5.055c3.948,0,4.095-2.71,4.095-5.055v-10.156h3.051v11.157
						c0,4.466-2.855,6.675-7.146,6.675s-7.146-2.209-7.146-6.675V872.632z M346.762,872.632h3.215l7.937,12.844h0.048v-12.844h2.899
						v17.435h-3.215l-7.911-12.819h-0.073v12.819h-2.899V872.632z M366.577,875.129h2.993c4.769,0,5.791,2.73,5.791,6.22
						c0,3.487-1.022,6.22-5.791,6.22h-2.993V875.129z M363.525,890.063h7.214c5.355,0,7.674-3.908,7.674-8.714
						s-2.318-8.714-7.674-8.714h-7.214V890.063z M386.388,875.641h0.048h0.025l2.61,7.515h-5.318L386.388,875.641z M378.14,890.066
						h3.148l1.634-4.607h6.956l1.634,4.607h3.271l-6.712-17.435h-3.246L378.14,890.066z M391.855,872.632h14.104v2.618h-5.539
						v14.815h-3.052V875.25h-5.514V872.632z M407.012,872.632h3.051v17.435h-3.051V872.632z M419.734,874.73
						c3.742,0,5.307,3.284,5.307,6.618c0,3.332-1.564,6.616-5.307,6.616s-5.306-3.284-5.306-6.616
						C414.429,878.015,415.992,874.73,419.734,874.73 M419.734,872.236c-5.232,0-8.357,4.148-8.357,9.112
						c0,4.962,3.125,9.11,8.357,9.11c5.234,0,8.357-4.148,8.357-9.11C428.092,876.385,424.969,872.236,419.734,872.236
						 M429.29,872.632h3.216l7.938,12.844h0.048v-12.844h2.899v17.435h-3.217l-7.911-12.819h-0.071v12.819h-2.901V872.632z
						 M353.672,839.695v0.246c0,0.101,0.035,0.183,0.135,0.183c0.101,0,0.136-0.082,0.136-0.183v-0.246
						c0-0.101-0.035-0.182-0.136-0.182C353.707,839.514,353.672,839.595,353.672,839.695 M358.811,839.076v0.347
						c0,0.1,0.035,0.181,0.135,0.181c0.102,0,0.135-0.081,0.135-0.181v-0.347c0-0.1-0.033-0.181-0.135-0.181
						C358.846,838.896,358.811,838.977,358.811,839.076 M370.079,811.229c-16.278,0-29.478,13.199-29.478,29.479
						c0,6.135,1.875,11.833,5.083,16.551l0.687-0.337v-3.214c0-0.543,0.54-0.608,0.54-0.262v2.536c0,0.595,0.541,0.742,0.541,0.132
						v-3.658c0-0.591,1.082-0.675,1.082-0.312v3.408c0,0.54,0.54,0.54,0.54,0v-3.969c0-0.479,1.083-0.594,1.083-0.231v3.659
						c0,0.541,0.541,0.541,0.541,0v-4.021c0-0.379,1.081-0.608,1.081-0.164v3.592c0,0.544,0.541,0.445,0.541,0.033v-3.824
						c0-0.429,0.421-0.629,0.698-0.473c0.429,0.242,0.665-0.021,0.699,0.407c0.042,0.559-0.032,3.132-0.032,3.493
						c0,0.412,0.527,0.379,0.527-0.033v-3.905c0-0.099,0.828-0.378,0.893-0.027c0.055,0.302,0.73,0.094,0.73,0.44v3.399
						c0,0.271,0.541,0.271,0.541,0v-3.978c0-0.295,0.887-0.174,0.885,0.209c0,0.316,0.766,0.111,0.772,0.331
						c0.017,0.461,0,3.169,0,3.438c0,0.271,0.506,0.271,0.506,0v-3.993c0-0.197,0.736-0.363,0.816,0.019
						c0.073,0.343,0.807,0.205,0.807,0.591v3.346c0,0.428,0.541,0.313,0.541-0.1v-3.493c0-0.247,0.641-0.354,0.814-0.064
						c0.247,0.41,0.667,0.188,0.667,0.476c0,0.578,0.018,2.688,0,3.05c0,0.527,0.578,0.595,0.578,0.049c0-0.428-0.008-3.148,0-3.164
						c0.182-0.428,0.89,0.759,1.219,0.265c0,0,0.841-1.039-0.229-1.318c-7.699-2.015-13.019,0.017-15.392,1.252
						c-0.163,0.084-0.703,0.341-1.199,0.633c-0.461,0.271-0.843,0.568-0.826,0.504c0.266-1.067,0.232-1.087,1.507-1.819
						c4.646-2.668,10.828-2.948,16.624-1.442c1.268,0.329,2.328,0.922,2.328,0.643c0-0.281-0.624-0.58-1.932-1.039
						c-1.88-0.658-10.937-2.702-17.939,1.846c-0.306,0.198,0.799-1.12,1.61-1.417v-1.137l-0.541-0.857v-0.61
						c4.057-3.146,11.669-2.998,15.294-2.042c1.227,0.322,2.097,0.824,2.121,0.525c0.023-0.297-2.191-1.006-2.694-1.119
						c-3.972-0.89-9.061-0.674-13.226,0.972c-0.55,0.217-1.002,0.518-1.045,0.438c-0.07-0.141,0.419-0.801,0.676-1.046
						c3.378-3.23,11.024-2.291,11.436-2.241c1.052,0.126,2.72,0.592,2.737,0.368s-1.074-0.588-2.654-0.781
						c-5.536-0.676-8.732,0.479-10.263,1.148c-0.311,0.137-0.466,0.234-0.59,0.173c-0.126-0.06,0.053-0.559,0.159-0.811
						c0,0,1.369-3.476,5.361-5.993c-0.01,0.006,0.53-1.075,1.071-1.651v-1.5c0-0.313-0.527-0.999-0.527-0.999
						s-0.13-0.263-0.007-0.435c0.808-1.12,1.45-1.631,1.45-2.06c0-0.544,0.131-3.427,0.527-3.427c0.396,0,0.527,2.98,0.527,3.559
						c0,0.544,0.823,1.055,1.434,1.944c0.112,0.164-0.034,0.444-0.034,0.444s-0.444,0.528-0.461,0.973
						c-0.023,0.609-0.009,1.485,0.008,1.497c0.8,0.596,1.088,1.666,1.063,1.65c5.076,3.296,5.374,7.513,5.521,7.614
						c1.368,0.938,2.109,2.651,2.109,2.651s0.049,0.361,0.008,0.76c-0.043,0.397-0.56,0.854-0.56,0.854l0.008,0.776
						c0.988,0.561,2.092,1.828,2.356,2.289c0.156,0.276-0.115,1.368-0.115,1.368s-0.313,0.726-0.644,1.284
						c-0.072,0.123,0,1.979,0,1.979l22.74,5.347c4.827-5.25,7.774-12.253,7.774-19.947
						C399.556,824.429,386.358,811.229,370.079,811.229 M382.88,840.617v-1.873c0-1.611,0.74-2.039,1.748-2.039
						c1.332,0,1.767,0.834,1.767,1.691v0.389h-1.352v-0.571c0-0.317-0.103-0.492-0.385-0.492c-0.506,0-0.427,0.582-0.427,1.289v1.36
						c0,1.125,0.032,1.33,0.427,1.381c0.402-0.01,0.385-0.388,0.385-0.849v-0.495h1.352v0.495c0,1.204-0.456,1.865-1.767,1.865
						C383.457,842.769,382.88,842.148,382.88,840.617 M378.011,836.893h1.353v0.54h-0.084c0.296-0.54,0.885-0.736,1.19-0.736
						c0.758,0,1.327,0.448,1.327,1.478v4.397h-1.352v-3.796c0-0.561,0.006-0.928-0.494-0.948c-0.499-0.021-0.589,0.448-0.589,1.06
						v3.685h-1.352V836.893L378.011,836.893z M369.356,840.457v-0.591h1.624v0.479c-0.271,0.746,0.141,1.286,0.852,1.286
						c0.6,0,0.858-0.314,0.858-0.896c0-0.446-0.216-0.752-0.583-1.007c-0.743-0.58-1.677-0.997-2.259-1.761
						c-0.234-0.346-0.372-0.764-0.372-1.17c0-1.304,0.734-2.02,2.235-2.02c2.28,0,2.22,1.754,2.229,2.508l-1.383,0.004
						c0.012-0.685-0.051-1.357-0.832-1.357c-0.479,0-0.782,0.193-0.782,0.714c0,0.582,0.365,0.807,0.809,1.077
						c0.471,0.295,1.34,0.867,1.738,1.255c0.489,0.479,0.642,0.939,0.642,1.602c0,1.448-1,2.203-2.4,2.203
						C370.012,842.783,369.356,841.825,369.356,840.457 M376.389,851.496h-1.352v-5.139h-1.893v-1.055
						c1.081-0.009,1.867-0.297,2.154-1.38h1.09V851.496L376.389,851.496z M376.659,842.571h-1.352v-5.679h1.352V842.571z
						 M376.659,836.08h-1.352V835h1.352V836.08z M382.067,848.696c0,2.438-0.738,3.131-2.251,3.131
						c-1.122,0-1.974-0.602-1.933-1.685h1.328c0.011,0.271-0.024,0.595,0.552,0.563c0.809,0,0.682-1.018,0.682-1.479v-0.49
						c0,0.244-0.395,0.509-1.063,0.509c-1.219,0-1.707-0.826-1.707-2.398c0-1.921,0.529-2.911,2.19-2.911
						c1.711,0,2.201,1.111,2.201,2.911V848.696z M384.657,851.787c-1.977,0-2.319-1.449-2.049-2.25v-0.476h1.207
						c0.031,0.542-0.101,1.592,0.811,1.592c0.792,0,0.771-0.732,0.771-1.451c0-0.235-0.011-0.623-0.166-0.808
						c-0.266-0.317-0.892-0.307-1.293-0.307l0.014-1.121c0.295-0.019,0.623,0.012,0.899-0.11c0.388-0.185,0.438-0.563,0.438-0.939
						c0-0.584-0.194-0.858-0.665-0.858c-0.297,0-0.664,0.112-0.664,0.603v0.426h-1.368c-0.082-1.353,0.549-2.208,2.003-2.208
						c1.438,0,2.034,0.784,2.034,1.998c0,0.663-0.235,1.498-1.047,1.611v0.021c0.812,0.082,1.253,0.685,1.233,1.865
						C386.816,850.88,386.235,851.787,384.657,851.787 M389.185,836.705c1.852,0,2.078,0.955,2.078,2.522v0.639h-2.704v0.979
						c0,0.764,0.35,0.916,0.75,0.916c0.493,0,0.689-0.271,0.67-1.082h1.327c0.051,1.352-0.544,2.099-1.906,2.099
						c-1.536,0-2.192-0.729-2.192-2.437v-1.51C387.207,837.478,387.872,836.705,389.185,836.705 M390.39,848.762
						c-0.234,0.909-0.392,1.923-0.433,2.734h-1.471c0.113-1.354,0.623-3.081,1.216-4.582c0.162-0.407,0.529-1.098,0.876-1.638
						h-3.101v-1.083h4.325v0.931C391.263,846.319,390.706,847.498,390.39,848.762 M354.755,839.349v0.347
						c0,0.1,0.169,0.18,0.269,0.18c0.102,0,0.271-0.08,0.271-0.18v-0.347c0-0.101-0.169-0.182-0.271-0.182
						C354.924,839.167,354.755,839.248,354.755,839.349 M356.377,839.151v0.345c0,0.102,0.035,0.182,0.135,0.182
						s0.136-0.08,0.136-0.182v-0.345c0-0.102-0.036-0.182-0.136-0.182S356.377,839.05,356.377,839.151 M357.458,839.067v0.347
						c0,0.102,0.17,0.182,0.271,0.182c0.1,0,0.271-0.08,0.271-0.182v-0.347c0-0.099-0.171-0.181-0.271-0.181
						C357.628,838.887,357.458,838.969,357.458,839.067 M358.075,856.196l-4.886-0.939l-7.077,2.614
						c0.187,0.261,0.379,0.518,0.574,0.771l6.536-2.395l4.861,0.823l3.822-1.599l28.563,6.522c0.108-0.104,0.217-0.211,0.325-0.317
						l-28.883-6.988C361.712,854.89,358.075,856.196,358.075,856.196 M358.084,858.882l-4.877-0.772l-5.311,2.009
						c0.241,0.276,0.49,0.549,0.742,0.816l3.952-1.54v5.042c0.354,0.262,0.714,0.517,1.081,0.763v-5.805l3.786,0.577v7.38
						c0.444,0.211,0.896,0.411,1.353,0.601v-8.146l2.434-0.972v10.002c0.358,0.112,0.72,0.217,1.082,0.315v-10.664l1.081,0.229
						v10.709c0.358,0.083,0.72,0.157,1.083,0.227v-10.696l1.081,0.23v10.654c0.358,0.056,0.72,0.103,1.082,0.144v-10.584
						l1.081,0.231v10.459c0.36,0.029,0.72,0.05,1.083,0.064v-10.293l1.081,0.23v10.089c0.061,0.002,0.121,0.003,0.181,0.003
						c0.302,0,0.602-0.006,0.901-0.015v-9.845l1.081,0.229v9.562c0.363-0.023,0.723-0.053,1.083-0.09v-9.24l1.081,0.213v8.895
						c0.271-0.039,0.542-0.08,0.812-0.126v-8.537l1.081,0.231v8.103c0.362-0.076,0.724-0.159,1.082-0.247v-7.625l1.081,0.214v7.12
						c0.364-0.104,0.725-0.217,1.082-0.335v-6.554l1.082,0.229v5.94c0.364-0.136,0.726-0.279,1.081-0.43V862.6l0.812,0.23v4.688
						c-0.012,0.007-0.023,0.013-0.035,0.021c0.378-0.172,0.749-0.352,1.118-0.539v-3.939l1.081,0.216v3.145
						c0.365-0.206,0.726-0.418,1.081-0.639v-2.276l1.082,0.231v1.343c0.842-0.575,1.652-1.192,2.429-1.848l-27.188-5.865
						L358.084,858.882z M388.559,839.056h1.352v-0.57c0-0.581-0.173-0.764-0.707-0.764c-0.665,0-0.645,0.509-0.645,1.028V839.056z
						 M357.12,855.097c1.606,0.003,2.268,0.425,2.276-0.028c0.006-0.336-0.77-0.518-2.311-0.488
						c-1.935,0.035-2.15,0.184-2.145,0.588C354.946,855.456,355.381,855.094,357.12,855.097 M379.809,845.059
						c-0.749,0.01-0.667,0.705-0.667,1.687c0,0.551-0.07,1.379,0.698,1.379c0.708,0,0.708-0.744,0.708-1.379
						C380.558,845.794,380.578,844.986,379.809,845.059 M351.372,840.51v0.132c0,0.102,0.081,0.182,0.181,0.182
						c0.101,0,0.181-0.08,0.181-0.182v-0.132c0-0.101-0.08-0.181-0.181-0.181C351.453,840.329,351.372,840.409,351.372,840.51
						 M350.157,846.072v1.696c0,0.104,0.03,0.19,0.134,0.19c0.105,0,0.137-0.086,0.137-0.19v-1.696c0-0.105-0.031-0.19-0.137-0.19
						C350.188,845.882,350.157,845.967,350.157,846.072 M354.213,844.7v1.937c0,0.117,0.152,0.214,0.271,0.214
						c0.118,0,0.271-0.097,0.271-0.214V844.7c0-0.119-0.152-0.214-0.271-0.214C354.365,844.486,354.213,844.581,354.213,844.7
						 M352.635,839.892c-0.1,0-0.18,0.082-0.18,0.183v0.132c0,0.1,0.08,0.18,0.18,0.18c0.102,0,0.182-0.08,0.182-0.18v-0.132
						C352.816,839.974,352.736,839.892,352.635,839.892 M349.074,846.755v1.468c0,0.104,0.031,0.189,0.136,0.189
						c0.105,0,0.135-0.086,0.135-0.189v-1.468c0-0.104-0.029-0.188-0.135-0.188C349.105,846.566,349.074,846.651,349.074,846.755
						 M351.238,845.392v1.936c0,0.118,0.153,0.215,0.271,0.215c0.118,0,0.271-0.097,0.271-0.215v-1.936
						c0-0.118-0.152-0.214-0.271-0.214C351.392,845.178,351.238,845.273,351.238,845.392 M357.458,844.337v1.937
						c0,0.119,0.018,0.216,0.136,0.216c0.117,0,0.135-0.097,0.135-0.216v-1.937c0-0.118-0.018-0.215-0.135-0.215
						C357.476,844.122,357.458,844.219,357.458,844.337 M360.434,844.437v1.936c0,0.118,0.016,0.215,0.135,0.215
						c0.118,0,0.136-0.097,0.136-0.215v-1.936c0-0.118-0.018-0.214-0.136-0.214C360.449,844.223,360.434,844.318,360.434,844.437
						 M358.811,844.321v1.935c0,0.119,0.152,0.216,0.27,0.216c0.119,0,0.271-0.097,0.271-0.216v-1.935
						c0-0.119-0.151-0.214-0.271-0.214C358.963,844.107,358.811,844.202,358.811,844.321 M352.591,845.016v1.937
						c0,0.119,0.151,0.216,0.27,0.216s0.271-0.097,0.271-0.216v-1.937c0-0.117-0.152-0.214-0.271-0.214
						S352.591,844.898,352.591,845.016 M355.836,844.469v1.937c0,0.118,0.151,0.215,0.271,0.215c0.118,0,0.271-0.097,0.271-0.215
						v-1.937c0-0.118-0.152-0.214-0.271-0.214C355.987,844.255,355.836,844.351,355.836,844.469"/>
				</g>
			</g>
		</g>
		<path class="st2" d="M502.073,869.383h-5.135v-34.484h5.135v6.004c2.268-3.736,5.869-6.736,11.805-6.736
			c8.339,0,13.207,5.603,13.207,13.806v21.411h-5.136V849.24c0-6.404-3.467-10.406-9.538-10.406
			c-5.937,0-10.338,4.336-10.338,10.806V869.383L502.073,869.383z"/>
		<path class="st2" d="M548.769,870.183c-10.07,0-17.676-8.205-17.676-17.942c0-9.804,7.605-18.076,17.676-18.076
			c6.538,0,10.606,2.735,13.809,6.137l-3.401,3.602c-2.735-2.868-5.804-5.202-10.473-5.202c-7.004,0-12.339,5.937-12.339,13.406
			c0,7.538,5.468,13.473,12.674,13.473c4.4,0,7.803-2.2,10.537-5.136l3.268,3.07C559.375,867.38,555.24,870.183,548.769,870.183"/>
		<polygon class="st2" points="568.351,846.152 585.071,838.908 568.351,831.832 568.351,828.844 588.609,837.351 588.609,840.339 
			568.351,849.1 		"/>
		<polygon class="st2" points="618.87,826.777 620.215,826.777 620.215,838.993 619.115,838.993 611.229,828.976 611.229,838.993 
			609.883,838.993 609.883,826.777 611.175,826.777 618.87,836.567 		"/>
		<path class="st2" d="M626.989,839.202c-2.705,0-4.677-2.128-4.677-4.694c0-2.565,1.991-4.729,4.712-4.729
			c2.706,0,4.694,2.129,4.694,4.694C631.719,837.039,629.712,839.202,626.989,839.202 M626.989,830.965
			c-1.954,0-3.297,1.554-3.297,3.508c0,1.955,1.431,3.525,3.332,3.525c1.956,0,3.316-1.553,3.316-3.49
			C630.341,832.536,628.893,830.965,626.989,830.965"/>
		<path class="st2" d="M634.677,838.993h-1.345v-9.022h1.345v2.356c0.662-1.501,1.972-2.584,3.682-2.514v1.448h-0.104
			c-1.972,0-3.578,1.415-3.578,4.136V838.993L634.677,838.993z"/>
		<path class="st2" d="M642.364,836.428c0,1.1,0.609,1.5,1.517,1.5c0.455,0,0.838-0.087,1.31-0.314v1.153
			c-0.472,0.242-0.978,0.383-1.622,0.383c-1.449,0-2.549-0.715-2.549-2.548v-5.445h-1.257v-1.186h1.257v-2.723h1.345v2.723h2.861
			v1.186h-2.861V836.428L642.364,836.428z"/>
		<path class="st2" d="M648.372,838.993h-1.345v-12.74h1.345v5.288c0.593-0.977,1.534-1.763,3.088-1.763
			c2.183,0,3.455,1.466,3.455,3.613v5.602h-1.343v-5.271c0-1.675-0.908-2.723-2.495-2.723c-1.554,0-2.705,1.136-2.705,2.828V838.993
			z"/>
		<path class="st2" d="M667.68,839.202c-3.525,0-6.125-2.774-6.125-6.301c0-3.49,2.582-6.334,6.178-6.334
			c2.217,0,3.543,0.786,4.764,1.938l-0.94,1.012c-1.03-0.978-2.183-1.675-3.841-1.675c-2.704,0-4.729,2.181-4.729,5.025
			s2.042,5.061,4.729,5.061c1.676,0,2.775-0.645,3.944-1.763l0.908,0.892C671.293,838.347,669.896,839.202,667.68,839.202"/>
		<path class="st2" d="M674.94,831.699l-0.401-1.1c0.995-0.454,1.973-0.751,3.28-0.751c2.462,0,3.84,1.257,3.84,3.631v5.514h-1.292
			v-1.36c-0.627,0.82-1.675,1.554-3.262,1.554c-1.677,0-3.369-0.943-3.369-2.828c0-1.919,1.571-2.932,3.856-2.932
			c1.152,0,1.973,0.157,2.774,0.384v-0.314c0-1.623-0.994-2.461-2.687-2.461C676.615,831.035,675.778,831.314,674.94,831.699
			 M675.097,836.306c0,1.151,1.048,1.815,2.271,1.815c1.657,0,3.018-1.012,3.018-2.442v-0.874c-0.662-0.191-1.552-0.383-2.652-0.383
			C676.04,834.422,675.097,835.154,675.097,836.306"/>
		<path class="st2" d="M685.053,838.993h-1.344v-9.022h1.344v2.356c0.663-1.501,1.973-2.584,3.683-2.514v1.448h-0.104
			c-1.972,0-3.578,1.415-3.578,4.136V838.993L685.053,838.993z"/>
		<path class="st2" d="M693.7,839.202c-2.705,0-4.677-2.128-4.677-4.694c0-2.565,1.989-4.729,4.712-4.729
			c2.706,0,4.694,2.129,4.694,4.694C698.43,837.039,696.423,839.202,693.7,839.202 M693.7,830.965c-1.954,0-3.298,1.554-3.298,3.508
			c0,1.955,1.431,3.525,3.333,3.525c1.954,0,3.314-1.553,3.314-3.49C697.05,832.536,695.604,830.965,693.7,830.965"/>
		<rect x="700.167" y="826.255" class="st2" width="1.343" height="12.739"/>
		<path class="st2" d="M703.856,826.517h1.536V828h-1.536V826.517z M703.946,829.972h1.343v9.022h-1.343V829.972z"/>
		<path class="st2" d="M708.944,838.993H707.6v-9.022h1.345v1.57c0.593-0.977,1.536-1.763,3.09-1.763
			c2.181,0,3.454,1.466,3.454,3.613v5.602h-1.344v-5.271c0-1.675-0.906-2.723-2.495-2.723c-1.554,0-2.705,1.136-2.705,2.828V838.993
			z"/>
		<path class="st2" d="M718.303,831.699l-0.401-1.1c0.995-0.454,1.972-0.751,3.28-0.751c2.46,0,3.84,1.257,3.84,3.631v5.514h-1.292
			v-1.36c-0.628,0.82-1.675,1.554-3.262,1.554c-1.677,0-3.369-0.943-3.369-2.828c0-1.919,1.571-2.932,3.855-2.932
			c1.153,0,1.973,0.157,2.775,0.384v-0.314c0-1.623-0.995-2.461-2.688-2.461C719.978,831.035,719.141,831.314,718.303,831.699
			 M718.459,836.306c0,1.151,1.047,1.815,2.269,1.815c1.659,0,3.02-1.012,3.02-2.442v-0.874c-0.664-0.191-1.552-0.383-2.652-0.383
			C719.402,834.422,718.459,835.154,718.459,836.306"/>
		<path class="st2" d="M614.986,857.104c-3.523,0-6.125-2.774-6.125-6.3c0-3.491,2.584-6.335,6.178-6.335
			c2.218,0,3.543,0.786,4.765,1.938l-0.942,1.012c-1.029-0.977-2.183-1.675-3.838-1.675c-2.707,0-4.729,2.182-4.729,5.025
			c0,2.845,2.04,5.062,4.729,5.062c1.675,0,2.773-0.646,3.943-1.763l0.907,0.891C618.6,856.25,617.204,857.104,614.986,857.104"/>
		<path class="st2" d="M622.827,856.895h-1.344v-12.739h1.344v5.287c0.595-0.978,1.536-1.763,3.089-1.763
			c2.182,0,3.456,1.467,3.456,3.613v5.602h-1.344v-5.27c0-1.677-0.907-2.723-2.494-2.723c-1.554,0-2.707,1.134-2.707,2.826V856.895z
			"/>
		<path class="st2" d="M632.186,849.601l-0.401-1.101c0.997-0.453,1.973-0.75,3.281-0.75c2.461,0,3.839,1.257,3.839,3.631v5.514
			h-1.29v-1.361c-0.629,0.821-1.675,1.554-3.264,1.554c-1.677,0-3.367-0.943-3.367-2.827c0-1.92,1.569-2.932,3.855-2.932
			c1.151,0,1.972,0.156,2.775,0.383v-0.314c0-1.622-0.995-2.46-2.688-2.46C633.86,848.937,633.022,849.216,632.186,849.601
			 M632.344,854.207c0,1.151,1.047,1.815,2.269,1.815c1.657,0,3.018-1.013,3.018-2.443v-0.873c-0.662-0.191-1.552-0.384-2.65-0.384
			C633.285,852.322,632.344,853.056,632.344,854.207"/>
		<path class="st2" d="M651.527,847.681c2.076,0,3.35,1.396,3.35,3.63v5.585h-1.343v-5.271c0-1.745-0.873-2.723-2.339-2.723
			c-1.36,0-2.496,1.013-2.496,2.793v5.2h-1.326v-5.306c0-1.692-0.89-2.688-2.32-2.688c-1.433,0-2.514,1.187-2.514,2.846v5.147
			h-1.344v-9.022h1.344v1.518c0.595-0.889,1.396-1.71,2.914-1.71c1.466,0,2.408,0.786,2.896,1.798
			C648.996,848.484,649.956,847.681,651.527,847.681"/>
		<path class="st2" d="M662.259,857.087c-1.677,0-2.758-0.908-3.455-1.921v1.729h-1.345v-12.739h1.345v5.533
			c0.732-1.083,1.798-2.008,3.455-2.008c2.162,0,4.31,1.711,4.31,4.694C666.568,855.342,664.439,857.087,662.259,857.087
			 M662.015,848.885c-1.677,0-3.264,1.396-3.264,3.49c0,2.111,1.587,3.507,3.264,3.507c1.745,0,3.176-1.29,3.176-3.489
			C665.19,850.245,663.725,848.885,662.015,848.885"/>
		<path class="st2" d="M672.453,855.935c1.239,0,2.112-0.506,2.844-1.272l0.839,0.75c-0.907,1.013-2.006,1.692-3.718,1.692
			c-2.478,0-4.502-1.903-4.502-4.712c0-2.618,1.833-4.712,4.328-4.712c2.671,0,4.206,2.129,4.206,4.781c0,0.123,0,0.262-0.017,0.42
			h-7.156C669.471,854.836,670.866,855.935,672.453,855.935 M675.09,851.887c-0.141-1.642-1.083-3.072-2.879-3.072
			c-1.571,0-2.758,1.31-2.934,3.072H675.09z"/>
		<path class="st2" d="M679.817,856.895h-1.345v-9.021h1.345v2.354c0.663-1.501,1.972-2.582,3.683-2.513v1.448h-0.104
			c-1.972,0-3.578,1.414-3.578,4.137V856.895L679.817,856.895z"/>
		<rect x="599.161" y="825.113" class="st2" width="0.569" height="50.102"/>
		<polygon class="st2" points="609.883,875.253 609.883,861.513 619.152,861.513 619.152,863.135 611.701,863.135 611.701,867.389 
			618.149,867.389 618.149,869.011 611.701,869.011 611.701,875.253 		"/>
		<path class="st2" d="M620.67,870.276c0-1.843,0.514-3.208,1.537-4.096c0.857-0.737,1.9-1.106,3.132-1.106
			c1.368,0,2.485,0.448,3.354,1.345c0.869,0.898,1.304,2.136,1.304,3.717c0,1.281-0.193,2.29-0.576,3.022
			c-0.385,0.734-0.945,1.305-1.679,1.71c-0.734,0.407-1.535,0.61-2.403,0.61c-1.396,0-2.521-0.448-3.379-1.34
			C621.1,873.244,620.67,871.957,620.67,870.276 M622.404,870.276c0,1.274,0.278,2.229,0.834,2.862
			c0.557,0.636,1.257,0.953,2.101,0.953c0.837,0,1.533-0.319,2.089-0.957c0.557-0.638,0.836-1.609,0.836-2.914
			c0-1.231-0.281-2.164-0.84-2.799c-0.561-0.635-1.254-0.95-2.085-0.95c-0.844,0-1.544,0.315-2.101,0.946
			C622.683,868.049,622.404,869.002,622.404,870.276"/>
		<path class="st2" d="M638.499,875.253v-1.462c-0.775,1.124-1.828,1.688-3.158,1.688c-0.588,0-1.137-0.113-1.646-0.338
			c-0.51-0.226-0.889-0.508-1.134-0.849c-0.247-0.34-0.42-0.757-0.521-1.251c-0.067-0.33-0.103-0.855-0.103-1.574V865.3h1.687v5.52
			c0,0.882,0.035,1.475,0.104,1.781c0.105,0.443,0.331,0.792,0.675,1.045s0.768,0.38,1.274,0.38c0.506,0,0.981-0.13,1.425-0.389
			c0.442-0.261,0.758-0.613,0.941-1.06c0.185-0.447,0.276-1.096,0.276-1.945V865.3h1.688v9.953H638.499z"/>
		<path class="st2" d="M642.65,875.253V865.3h1.519v1.414c0.73-1.094,1.788-1.64,3.169-1.64c0.6,0,1.149,0.108,1.652,0.323
			c0.505,0.215,0.88,0.499,1.13,0.849c0.252,0.35,0.424,0.766,0.525,1.246c0.063,0.312,0.094,0.859,0.094,1.641v6.12h-1.688v-6.055
			c0-0.688-0.065-1.201-0.195-1.542c-0.132-0.341-0.364-0.611-0.699-0.814s-0.728-0.306-1.177-0.306c-0.72,0-1.338,0.228-1.86,0.685
			c-0.522,0.456-0.783,1.32-0.783,2.597v5.436H642.65L642.65,875.253z"/>
		<path class="st2" d="M659.783,875.253v-1.257c-0.63,0.987-1.558,1.482-2.782,1.482c-0.794,0-1.524-0.22-2.188-0.657
			c-0.667-0.438-1.182-1.047-1.547-1.833c-0.366-0.784-0.549-1.685-0.549-2.703c0-0.993,0.167-1.896,0.497-2.703
			c0.331-0.81,0.828-1.431,1.491-1.861c0.662-0.432,1.402-0.646,2.22-0.646c0.601,0,1.134,0.126,1.604,0.379
			c0.469,0.253,0.851,0.584,1.143,0.989v-4.93h1.678v13.74H659.783z M654.451,870.285c0,1.274,0.27,2.228,0.807,2.858
			s1.172,0.946,1.901,0.946c0.737,0,1.365-0.301,1.88-0.904c0.515-0.603,0.773-1.522,0.773-2.76c0-1.362-0.263-2.363-0.788-2.999
			c-0.525-0.638-1.17-0.957-1.939-0.957c-0.749,0-1.377,0.308-1.879,0.919C654.701,868.002,654.451,868.966,654.451,870.285"/>
		<path class="st2" d="M670.496,874.025c-0.625,0.531-1.226,0.906-1.804,1.125c-0.579,0.218-1.198,0.328-1.86,0.328
			c-1.095,0-1.935-0.268-2.522-0.802c-0.587-0.534-0.881-1.217-0.881-2.048c0-0.487,0.11-0.934,0.334-1.336
			c0.221-0.403,0.512-0.727,0.87-0.97c0.36-0.244,0.766-0.429,1.215-0.553c0.33-0.088,0.83-0.172,1.499-0.253
			c1.362-0.163,2.365-0.357,3.009-0.581c0.008-0.232,0.011-0.379,0.011-0.442c0-0.686-0.16-1.17-0.479-1.452
			c-0.432-0.38-1.072-0.572-1.922-0.572c-0.793,0-1.38,0.14-1.757,0.419c-0.378,0.277-0.659,0.77-0.839,1.476l-1.649-0.226
			c0.148-0.705,0.396-1.276,0.74-1.71c0.344-0.435,0.839-0.77,1.49-1.003c0.649-0.234,1.402-0.352,2.259-0.352
			c0.85,0,1.539,0.1,2.071,0.3c0.531,0.199,0.922,0.452,1.172,0.755s0.424,0.687,0.523,1.147c0.057,0.288,0.085,0.806,0.085,1.557
			v2.249c0,1.568,0.035,2.561,0.108,2.976c0.071,0.416,0.213,0.813,0.426,1.195h-1.762
			C670.658,874.903,670.546,874.494,670.496,874.025 M670.355,870.258c-0.612,0.25-1.53,0.462-2.756,0.638
			c-0.693,0.099-1.184,0.212-1.47,0.336c-0.288,0.126-0.511,0.308-0.667,0.549c-0.157,0.241-0.234,0.508-0.234,0.802
			c0,0.449,0.171,0.825,0.511,1.125c0.341,0.3,0.84,0.448,1.495,0.448c0.65,0,1.229-0.142,1.734-0.425
			c0.506-0.284,0.878-0.674,1.115-1.168c0.181-0.382,0.271-0.943,0.271-1.687V870.258z"/>
		<path class="st2" d="M678.36,873.745l0.244,1.49c-0.476,0.1-0.9,0.149-1.275,0.149c-0.611,0-1.087-0.097-1.425-0.29
			c-0.336-0.194-0.573-0.449-0.713-0.765c-0.137-0.316-0.206-0.979-0.206-1.991v-5.728h-1.237V865.3h1.237v-2.465l1.679-1.013v3.478
			h1.696v1.312h-1.696v5.821c0,0.481,0.028,0.79,0.089,0.928c0.059,0.137,0.156,0.247,0.291,0.329
			c0.133,0.08,0.326,0.121,0.575,0.121C677.808,873.811,678.054,873.789,678.36,873.745"/>
		<path class="st2" d="M680.02,861.514h1.687v1.939h-1.687V861.514z M680.02,865.3h1.687v9.953h-1.687V865.3z"/>
		<path class="st2" d="M683.647,870.276c0-1.843,0.512-3.208,1.536-4.096c0.856-0.737,1.901-1.106,3.132-1.106
			c1.367,0,2.486,0.448,3.354,1.345c0.868,0.898,1.303,2.136,1.303,3.717c0,1.281-0.191,2.29-0.576,3.022
			c-0.385,0.734-0.945,1.305-1.678,1.71c-0.734,0.407-1.536,0.61-2.403,0.61c-1.395,0-2.521-0.448-3.38-1.34
			C684.076,873.244,683.647,871.957,683.647,870.276 M685.381,870.276c0,1.274,0.277,2.229,0.834,2.862
			c0.556,0.636,1.256,0.953,2.101,0.953c0.837,0,1.534-0.319,2.09-0.957c0.557-0.638,0.834-1.609,0.834-2.914
			c0-1.231-0.279-2.164-0.84-2.799c-0.559-0.635-1.253-0.95-2.084-0.95c-0.845,0-1.545,0.315-2.101,0.946
			C685.658,868.049,685.381,869.002,685.381,870.276"/>
		<path class="st2" d="M694.951,875.253V865.3h1.518v1.414c0.731-1.094,1.788-1.64,3.169-1.64c0.6,0,1.149,0.108,1.653,0.323
			s0.879,0.499,1.129,0.849c0.252,0.35,0.426,0.766,0.525,1.246c0.063,0.312,0.095,0.859,0.095,1.641v6.12h-1.688v-6.055
			c0-0.688-0.066-1.201-0.196-1.542c-0.132-0.341-0.364-0.611-0.699-0.814c-0.334-0.203-0.728-0.306-1.176-0.306
			c-0.719,0-1.339,0.228-1.861,0.685c-0.522,0.456-0.782,1.32-0.782,2.597v5.436H694.951L694.951,875.253z"/>
		<rect x="496.938" y="825.113" class="st3" width="228.083" height="51.468"/>
	</g>
</g>
</svg>
